<svg width="320" height="166" viewBox="0 0 320 166" xmlns="http://www.w3.org/2000/svg"><title>Group 2</title><g fill="none" fill-rule="evenodd"><path d="M170.758 27.166h14.946c2.632 0 4.794-.627 6.486-1.88 1.692-1.253 2.538-3.29 2.538-6.11 0-1.567-.282-2.851-.846-3.854-.564-1.003-1.316-1.786-2.256-2.35-.94-.564-2.021-.956-3.243-1.175a21.516 21.516 0 0 0-3.807-.329h-13.818v15.698zM156 0h31.584c3.196 0 6.11.282 8.742.846 2.632.564 4.888 1.488 6.768 2.773 1.88 1.285 3.337 2.992 4.371 5.123 1.034 2.13 1.551 4.763 1.551 7.896 0 3.384-.768 6.204-2.303 8.46-1.535 2.256-3.807 4.105-6.815 5.546 4.136 1.19 7.222 3.274 9.259 6.251 2.037 2.977 3.055 6.564 3.055 10.763 0 3.384-.658 6.314-1.974 8.789-1.316 2.475-3.086 4.496-5.311 6.063-2.225 1.567-4.763 2.726-7.614 3.478a34.319 34.319 0 0 1-8.789 1.128H156V0zm14.758 55.648h15.792c1.441 0 2.82-.141 4.136-.423 1.316-.282 2.475-.752 3.478-1.41 1.003-.658 1.802-1.551 2.397-2.679.595-1.128.893-2.57.893-4.324 0-3.447-.971-5.906-2.914-7.379-1.943-1.473-4.512-2.209-7.708-2.209h-16.074v18.424zm82.72-18.048c-.627-3.384-1.739-5.953-3.337-7.708s-4.026-2.632-7.285-2.632c-2.13 0-3.901.36-5.311 1.081-1.41.72-2.538 1.614-3.384 2.679-.846 1.065-1.441 2.193-1.786 3.384-.345 1.19-.548 2.256-.611 3.196h21.714zm-21.714 8.46c.188 4.324 1.285 7.457 3.29 9.4 2.005 1.943 4.888 2.914 8.648 2.914 2.695 0 5.013-.674 6.956-2.021 1.943-1.347 3.133-2.773 3.572-4.277h11.75c-1.88 5.828-4.763 9.995-8.648 12.502-3.885 2.507-8.585 3.76-14.1 3.76-3.823 0-7.27-.611-10.34-1.833-3.07-1.222-5.671-2.961-7.802-5.217-2.13-2.256-3.776-4.95-4.935-8.084-1.16-3.133-1.739-6.58-1.739-10.34 0-3.635.595-7.019 1.786-10.152 1.19-3.133 2.883-5.844 5.076-8.131 2.193-2.287 4.81-4.089 7.849-5.405 3.04-1.316 6.408-1.974 10.105-1.974 4.136 0 7.74.799 10.81 2.397 3.07 1.598 5.593 3.744 7.567 6.439 1.974 2.695 3.4 5.765 4.277 9.212.877 3.447 1.19 7.05.94 10.81h-35.062zm42.958-27.542v48.598h13.348V41.642c0-4.95.815-8.507 2.444-10.669 1.63-2.162 4.261-3.243 7.896-3.243 3.196 0 5.42.987 6.674 2.961 1.253 1.974 1.88 4.966 1.88 8.977v27.448h13.348V37.224c0-3.008-.266-5.75-.799-8.225-.533-2.475-1.457-4.575-2.773-6.298-1.316-1.723-3.118-3.07-5.405-4.042-2.287-.971-5.217-1.457-8.789-1.457-2.82 0-5.577.642-8.272 1.927-2.695 1.285-4.888 3.337-6.58 6.157h-.282v-6.768h-12.69z" fill="#F7484E"/><path d="M0 50v67.116h50.948v-12.408h-36.19v-16.45h32.524V76.79H14.758V62.408h35.438V50H0zm59.878 0v67.116h13.348V50H59.878zm48.41 58.374c2.193 0 4.026-.439 5.499-1.316a10.698 10.698 0 0 0 3.572-3.431c.909-1.41 1.551-3.055 1.927-4.935.376-1.88.564-3.791.564-5.734a27 27 0 0 0-.611-5.734c-.407-1.88-1.081-3.556-2.021-5.029a11.258 11.258 0 0 0-3.619-3.572c-1.473-.909-3.274-1.363-5.405-1.363-2.193 0-4.026.454-5.499 1.363a10.973 10.973 0 0 0-3.572 3.525c-.909 1.441-1.551 3.102-1.927 4.982a29.65 29.65 0 0 0-.564 5.828 27 27 0 0 0 .611 5.734c.407 1.88 1.065 3.525 1.974 4.935.909 1.41 2.115 2.554 3.619 3.431 1.504.877 3.321 1.316 5.452 1.316zM83.754 68.518h12.69v6.204h.188c1.63-2.632 3.697-4.543 6.204-5.734 2.507-1.19 5.264-1.786 8.272-1.786 3.823 0 7.113.72 9.87 2.162 2.757 1.441 5.045 3.353 6.862 5.734 1.817 2.381 3.165 5.154 4.042 8.319.877 3.165 1.316 6.47 1.316 9.917 0 3.259-.439 6.392-1.316 9.4s-2.209 5.671-3.995 7.99-4.01 4.167-6.674 5.546c-2.663 1.379-5.781 2.068-9.353 2.068-3.008 0-5.781-.611-8.319-1.833-2.538-1.222-4.622-3.024-6.251-5.405h-.188v23.03H83.754V68.518zM141.188 50v67.116h13.348V91.642c0-4.95.815-8.507 2.444-10.669 1.63-2.162 4.261-3.243 7.896-3.243 3.196 0 5.42.987 6.674 2.961 1.253 1.974 1.88 4.966 1.88 8.977v27.448h13.348V87.224c0-3.008-.266-5.75-.799-8.225-.533-2.475-1.457-4.575-2.773-6.298-1.316-1.723-3.118-3.07-5.405-4.042-2.287-.971-5.217-1.457-8.789-1.457-2.507 0-5.076.642-7.708 1.927-2.632 1.285-4.794 3.337-6.486 6.157h-.282V50h-13.348zm69.466 10.998V50h-13.348v10.998h13.348zm-13.348 7.52v48.598h13.348V68.518h-13.348zm23.876 0v48.598h13.348V91.642c0-4.95.815-8.507 2.444-10.669 1.63-2.162 4.261-3.243 7.896-3.243 3.196 0 5.42.987 6.674 2.961 1.253 1.974 1.88 4.966 1.88 8.977v27.448h13.348V87.224c0-3.008-.266-5.75-.799-8.225-.533-2.475-1.457-4.575-2.773-6.298-1.316-1.723-3.118-3.07-5.405-4.042-2.287-.971-5.217-1.457-8.789-1.457-2.82 0-5.577.642-8.272 1.927-2.695 1.285-4.888 3.337-6.58 6.157h-.282v-6.768h-12.69zM276.83 85.72v11.468h28.294V85.72H276.83z" stroke="#E0E0E0"/><path d="M12.69 149.376H0c.125 3.259.862 5.969 2.209 8.131s3.07 3.901 5.17 5.217c2.1 1.316 4.496 2.256 7.191 2.82a40.27 40.27 0 0 0 8.272.846c2.757 0 5.468-.266 8.131-.799 2.663-.533 5.029-1.457 7.097-2.773 2.068-1.316 3.744-3.055 5.029-5.217 1.285-2.162 1.927-4.841 1.927-8.037 0-2.256-.439-4.152-1.316-5.687a12.046 12.046 0 0 0-3.478-3.854c-1.441-1.034-3.086-1.864-4.935-2.491a56.388 56.388 0 0 0-5.687-1.598c-1.88-.439-3.729-.846-5.546-1.222-1.817-.376-3.431-.799-4.841-1.269-1.41-.47-2.554-1.081-3.431-1.833-.877-.752-1.316-1.723-1.316-2.914 0-1.003.25-1.802.752-2.397a4.936 4.936 0 0 1 1.833-1.363 8.159 8.159 0 0 1 2.397-.611 23.04 23.04 0 0 1 2.444-.141c2.381 0 4.45.454 6.204 1.363 1.755.909 2.726 2.648 2.914 5.217h12.69c-.25-3.008-1.018-5.499-2.303-7.473-1.285-1.974-2.898-3.556-4.841-4.747-1.943-1.19-4.152-2.037-6.627-2.538a38.502 38.502 0 0 0-7.661-.752c-2.632 0-5.201.235-7.708.705-2.507.47-4.763 1.285-6.768 2.444a13.511 13.511 0 0 0-4.841 4.747c-1.222 2.005-1.833 4.575-1.833 7.708 0 2.13.439 3.932 1.316 5.405a11.427 11.427 0 0 0 3.478 3.666c1.441.971 3.086 1.755 4.935 2.35a65.885 65.885 0 0 0 5.687 1.551c4.763 1.003 8.476 2.005 11.139 3.008 2.663 1.003 3.995 2.507 3.995 4.512 0 1.19-.282 2.178-.846 2.961a6.411 6.411 0 0 1-2.115 1.88c-.846.47-1.786.815-2.82 1.034-1.034.22-2.021.329-2.961.329-1.316 0-2.585-.157-3.807-.47-1.222-.313-2.303-.799-3.243-1.457a7.803 7.803 0 0 1-2.303-2.538c-.595-1.034-.893-2.272-.893-3.713zm57.058-32.806V102H56.4v14.57h-8.084v8.93H56.4v28.67c0 2.444.407 4.418 1.222 5.922.815 1.504 1.927 2.663 3.337 3.478 1.41.815 3.04 1.363 4.888 1.645a38.97 38.97 0 0 0 5.875.423c1.316 0 2.663-.031 4.042-.094a31.762 31.762 0 0 0 3.76-.376v-10.34a18.7 18.7 0 0 1-1.974.282c-.69.063-1.41.094-2.162.094-2.256 0-3.76-.376-4.512-1.128-.752-.752-1.128-2.256-1.128-4.512V125.5h9.776v-8.93h-9.776zm28.012 24.346c0 1.943.188 3.838.564 5.687.376 1.849 1.018 3.51 1.927 4.982a10.264 10.264 0 0 0 3.619 3.525c1.504.877 3.384 1.316 5.64 1.316s4.152-.439 5.687-1.316a10.146 10.146 0 0 0 3.666-3.525c.909-1.473 1.551-3.133 1.927-4.982.376-1.849.564-3.744.564-5.687s-.188-3.854-.564-5.734c-.376-1.88-1.018-3.54-1.927-4.982-.909-1.441-2.13-2.616-3.666-3.525-1.535-.909-3.431-1.363-5.687-1.363-2.256 0-4.136.454-5.64 1.363-1.504.909-2.71 2.084-3.619 3.525-.909 1.441-1.551 3.102-1.927 4.982a29.166 29.166 0 0 0-.564 5.734zm-13.348 0c0-3.885.595-7.41 1.786-10.575 1.19-3.165 2.883-5.86 5.076-8.084 2.193-2.225 4.825-3.948 7.896-5.17 3.07-1.222 6.517-1.833 10.34-1.833 3.823 0 7.285.611 10.387 1.833 3.102 1.222 5.75 2.945 7.943 5.17 2.193 2.225 3.885 4.92 5.076 8.084 1.19 3.165 1.786 6.69 1.786 10.575 0 3.885-.595 7.395-1.786 10.528-1.19 3.133-2.883 5.812-5.076 8.037-2.193 2.225-4.841 3.932-7.943 5.123-3.102 1.19-6.564 1.786-10.387 1.786-3.823 0-7.27-.595-10.34-1.786-3.07-1.19-5.703-2.898-7.896-5.123-2.193-2.225-3.885-4.904-5.076-8.037-1.19-3.133-1.786-6.643-1.786-10.528zm58.938-24.346v48.598h13.348v-25.474c0-4.95.815-8.507 2.444-10.669 1.63-2.162 4.261-3.243 7.896-3.243 3.196 0 5.42.987 6.674 2.961 1.253 1.974 1.88 4.966 1.88 8.977v27.448h13.348v-29.892c0-3.008-.266-5.75-.799-8.225-.533-2.475-1.457-4.575-2.773-6.298-1.316-1.723-3.118-3.07-5.405-4.042-2.287-.971-5.217-1.457-8.789-1.457-2.82 0-5.577.642-8.272 1.927-2.695 1.285-4.888 3.337-6.58 6.157h-.282v-6.768h-12.69zm88.454 19.082c-.627-3.384-1.739-5.953-3.337-7.708s-4.026-2.632-7.285-2.632c-2.13 0-3.901.36-5.311 1.081-1.41.72-2.538 1.614-3.384 2.679-.846 1.065-1.441 2.193-1.786 3.384-.345 1.19-.548 2.256-.611 3.196h21.714zm-21.714 8.46c.188 4.324 1.285 7.457 3.29 9.4 2.005 1.943 4.888 2.914 8.648 2.914 2.695 0 5.013-.674 6.956-2.021 1.943-1.347 3.133-2.773 3.572-4.277h11.75c-1.88 5.828-4.763 9.995-8.648 12.502-3.885 2.507-8.585 3.76-14.1 3.76-3.823 0-7.27-.611-10.34-1.833-3.07-1.222-5.671-2.961-7.802-5.217-2.13-2.256-3.776-4.95-4.935-8.084-1.16-3.133-1.739-6.58-1.739-10.34 0-3.635.595-7.019 1.786-10.152 1.19-3.133 2.883-5.844 5.076-8.131 2.193-2.287 4.81-4.089 7.849-5.405 3.04-1.316 6.408-1.974 10.105-1.974 4.136 0 7.74.799 10.81 2.397 3.07 1.598 5.593 3.744 7.567 6.439 1.974 2.695 3.4 5.765 4.277 9.212.877 3.447 1.19 7.05.94 10.81H210.09z" fill="#F7484E"/></g></svg>
