<svg viewBox="0 0 90 90" xmlns="http://www.w3.org/2000/svg" xmlns:xlink="http://www.w3.org/1999/xlink"><title>Page 1</title><defs><path id="a" d="M89.815 89.816H0V0h89.815z"/></defs><g fill="none" fill-rule="evenodd"><mask id="b" fill="#fff"><use xlink:href="#a"/></mask><path d="M48.212 40.508a2.24 2.24 0 0 1 .087-.128v.128h-.087zm27.934 34.674H62.581V53.486c0-5.452-1.966-9.171-6.872-9.171-3.753 0-5.981 2.51-6.96 4.932-.362.865-.452 2.076-.452 3.284v22.65H34.734s.177-36.747 0-40.55h13.565v5.749c1.801-2.763 5.02-6.703 12.223-6.703 8.93 0 15.624 5.792 15.624 18.253v23.252zm-55.7-46.09h-.092c-4.55 0-7.5-3.113-7.5-7.01 0-3.974 3.036-7.002 7.677-7.002s7.496 3.027 7.587 7.003c0 3.897-2.945 7.008-7.673 7.008zm-6.787 46.09h13.57v-40.55H13.66v40.55zM83.183 0H6.636C2.971 0 0 2.88 0 6.435v76.943c0 3.555 2.972 6.438 6.636 6.438h76.547c3.664 0 6.632-2.885 6.632-6.438V6.435C89.815 2.881 86.847 0 83.183 0z" fill="#E0E0E0" mask="url(#b)"/></g></svg>
