<svg viewBox="0 0 90 90" xmlns="http://www.w3.org/2000/svg"><title>github</title><path d="M45 0C20.149 0 0 20.653 0 46.126 0 66.51 12.893 83.795 30.775 89.893c2.25.422 3.071-1.002 3.071-2.218 0-1.099-.041-4.736-.063-8.587-12.513 2.787-15.158-5.44-15.158-5.44-2.05-5.326-4.997-6.745-4.997-6.745-4.09-2.86.31-2.804.31-2.804 4.519.321 6.898 4.752 6.898 4.752 4.015 7.05 10.535 5.012 13.095 3.83.41-2.974 1.574-5.012 2.857-6.16-9.99-1.166-20.498-5.125-20.498-22.8 0-5.039 1.755-9.149 4.628-12.378-.459-1.171-2.008-5.864.445-12.213 0 0 3.774-1.239 12.376 4.73 3.587-1.028 7.435-1.535 11.26-1.551 3.824.016 7.675.529 11.267 1.556 8.586-5.974 12.366-4.73 12.366-4.73 2.46 6.355.911 11.042.45 12.208 2.884 3.23 4.625 7.34 4.625 12.379 0 17.72-10.525 21.621-20.55 22.764 1.62 1.43 3.055 4.235 3.055 8.537 0 6.165-.06 11.137-.06 12.657 0 1.228.818 2.663 3.097 2.213C77.12 83.783 90 66.498 90 46.126 90 20.653 69.851 0 45 0z" fill="#E0E0E0"/></svg>
