<svg width="90" height="90" viewBox="0 0 90 90" xmlns="http://www.w3.org/2000/svg" xmlns:xlink="http://www.w3.org/1999/xlink"><title>Page 1</title><defs><path id="a" d="M45 0H0v90h90V0H45z"/></defs><g fill="none" fill-rule="evenodd"><mask id="b" fill="#fff"><use xlink:href="#a"/></mask><path d="M74.557 29.863a31.5 31.5 0 0 1 .04 1.97c0 20.112-15.336 43.31-43.386 43.31v-.017a43.241 43.241 0 0 1-23.375-6.835c1.208.141 2.423.212 3.639.211a30.65 30.65 0 0 0 18.94-6.5 15.263 15.263 0 0 1-14.247-10.579c2.286.44 4.643.351 6.889-.259-7.104-1.447-12.207-7.686-12.206-14.923v-.194a15.168 15.168 0 0 0 6.87 1.91c-6.698-4.471-8.761-13.371-4.71-20.324a43.321 43.321 0 0 0 31.43 15.904 15.225 15.225 0 0 1 7.664-16.877 15.28 15.28 0 0 1 18.319 2.994 30.59 30.59 0 0 0 9.686-3.696 15.297 15.297 0 0 1-6.701 8.422 30.475 30.475 0 0 0 8.755-2.398 30.993 30.993 0 0 1-7.607 7.881M82.933 0H7.073C3.173 0 0 3.083 0 6.873v76.252C0 86.916 3.173 90 7.073 90h75.86C86.829 90 90 86.916 90 83.125V6.873C90 3.083 86.829 0 82.933 0" fill="#E0E0E0" mask="url(#b)"/></g></svg>