<svg viewBox="0 0 90 90" xmlns="http://www.w3.org/2000/svg"><title>@ copy</title><path d="M69.187 22.26l-3.573 29.587a38.86 38.86 0 0 0-.312 3.128 49.236 49.236 0 0 0-.085 2.79c0 2.817 1.172 4.226 3.516 4.226 3.29 0 6.276-2.31 8.96-6.932 2.647-4.546 3.97-9.73 3.97-15.554 0-9.242-3.25-16.812-9.754-22.711-6.465-5.974-14.726-8.96-24.782-8.96-10.51 0-19.358 3.569-26.541 10.707-7.146 7.1-10.718 15.892-10.718 26.374 0 5.786 1.285 11.46 3.856 17.02 2.609 5.222 6.257 9.524 10.945 12.905 6.276 4.509 14.14 6.763 23.592 6.763 8.847 0 18.11-2.235 27.788-6.706l.85-.451 2.95 8.115-.68.338C69.3 87.633 59.016 90 48.317 90c-11.834 0-21.74-2.837-29.717-8.51-5.86-4.132-10.435-9.411-13.724-15.836C1.626 58.892 0 52.016 0 45.028c0-12.736 4.518-23.425 13.554-32.066C22.59 4.32 33.743 0 47.014 0c12.211 0 22.438 3.72 30.68 11.158C85.898 18.522 90 27.746 90 38.83c0 8.566-2.23 15.911-6.692 22.035-4.499 6.2-9.773 9.299-15.822 9.299-4.84 0-8.129-2.273-9.868-6.82-4.65 4.735-9.83 7.102-15.539 7.102-6.238 0-11.436-2.236-15.595-6.707-4.083-4.433-6.125-10.087-6.125-16.963 0-7.401 2.287-13.488 6.862-18.259 4.575-4.884 10.321-7.326 17.24-7.326 6.352 0 11.475 2.442 15.369 7.326l.794-6.256h8.563zM57.618 44.014c0-3.494-1.19-6.406-3.573-8.735-2.457-2.33-5.444-3.494-8.96-3.494-3.818 0-6.938 1.465-9.357 4.395-2.458 2.893-3.686 6.594-3.686 11.102 0 3.908.983 7.12 2.949 9.637 1.966 2.517 4.499 3.776 7.599 3.776 3.97 0 7.467-1.672 10.491-5.016 3.025-3.343 4.537-7.232 4.537-11.665z" fill="#E0E0E0" fill-rule="evenodd"/></svg>
