<?xml version="1.0" encoding="UTF-8"?>
<svg width="36px" height="27px" viewBox="0 0 36 27" version="1.1" xmlns="http://www.w3.org/2000/svg" xmlns:xlink="http://www.w3.org/1999/xlink">
    <!-- Generator: Sketch 42 (36781) - http://www.bohemiancoding.com/sketch -->
    <title>Page 1 Copy</title>
    <desc>Created with Sketch.</desc>
    <defs></defs>
    <g id="00-Production" stroke="none" stroke-width="1" fill="none" fill-rule="evenodd">
        <g id="Mob-P-Gr-/-Re-05-Copy" transform="translate(-7.000000, -536.000000)" fill="#E0E0E0">
            <g id="Page-1-Copy" transform="translate(7.000000, 536.000000)">
                <path d="M24.75,4.5 C18.5373,4.5 13.5,9.5373 13.5,15.75 C13.5,21.9627 18.5373,27 24.75,27 C30.9627,27 36,21.9627 36,15.75 C36,9.5373 30.9627,4.5 24.75,4.5 M24.75,7.2 C29.4642,7.2 33.3,11.0358 33.3,15.75 C33.3,20.4642 29.4642,24.3 24.75,24.3 C20.0358,24.3 16.2,20.4642 16.2,15.75 C16.2,11.0358 20.0358,7.2 24.75,7.2" id="Fill-1"></path>
                <path d="M13.65336,19.44009 C12.88926,19.66689 12.08646,19.80009 11.25036,19.80009 C6.53526,19.80009 2.70036,15.96429 2.70036,11.25009 C2.70036,6.53589 6.53526,2.70009 11.25036,2.70009 C14.04666,2.70009 16.52166,4.05999 18.08226,6.14259 C18.82296,5.62779 19.62666,5.20119 20.47806,4.86639 C18.44766,1.93599 15.08436,9e-05 11.25036,9e-05 C5.03676,9e-05 0.00036,5.03739 0.00036,11.25009 C0.00036,17.46279 5.03676,22.50009 11.25036,22.50009 C12.49776,22.50009 13.69026,22.27779 14.81076,21.90069 C14.33466,21.13389 13.94316,20.31129 13.65336,19.44009" id="Fill-3"></path>
                <path d="M13.05,15.75 C13.05,11.9268 14.8923,8.5428 17.7273,6.408 C16.2495,4.4343 13.8996,3.15 11.25,3.15 C6.7833,3.15 3.15,6.7833 3.15,11.25 C3.15,15.7158 6.7833,19.35 11.25,19.35 C12.0393,19.35 12.8007,19.2312 13.5216,19.0197 C13.2201,17.9811 13.05,16.8858 13.05,15.75" id="Fill-5"></path>
            </g>
        </g>
    </g>
</svg>