<svg width="36" height="27" viewBox="0 0 36 27" xmlns="http://www.w3.org/2000/svg"><title>Page 1 Copy</title><g fill="#E0E0E0" fill-rule="evenodd"><path d="M24.75 4.5c-6.213 0-11.25 5.037-11.25 11.25S18.537 27 24.75 27 36 21.963 36 15.75 30.963 4.5 24.75 4.5m0 2.7c4.714 0 8.55 3.836 8.55 8.55s-3.836 8.55-8.55 8.55-8.55-3.836-8.55-8.55 3.836-8.55 8.55-8.55"/><path d="M13.653 19.44a8.419 8.419 0 0 1-2.403.36c-4.715 0-8.55-3.836-8.55-8.55S6.535 2.7 11.25 2.7c2.797 0 5.272 1.36 6.832 3.443a11.708 11.708 0 0 1 2.396-1.277C18.448 1.936 15.084 0 11.25 0 5.037 0 0 5.037 0 11.25S5.037 22.5 11.25 22.5c1.248 0 2.44-.222 3.56-.6a11.61 11.61 0 0 1-1.157-2.46"/><path d="M13.05 15.75c0-3.823 1.842-7.207 4.677-9.342A8.077 8.077 0 0 0 11.25 3.15c-4.467 0-8.1 3.633-8.1 8.1 0 4.466 3.633 8.1 8.1 8.1.79 0 1.55-.119 2.272-.33a11.706 11.706 0 0 1-.472-3.27"/></g></svg>