<svg width="90" height="73" viewBox="0 0 90 73" xmlns="http://www.w3.org/2000/svg" xmlns:xlink="http://www.w3.org/1999/xlink"><title>Page 1</title><defs><path id="a" d="M0 36.349V0h89.461v72.697H0z"/></defs><g fill="none" fill-rule="evenodd"><mask id="b" fill="#fff"><use xlink:href="#a"/></mask><path d="M28.134 72.697c33.76 0 52.221-27.974 52.221-52.227 0-.793 0-1.587-.05-2.374a37.37 37.37 0 0 0 9.156-9.504 36.626 36.626 0 0 1-10.537 2.892 18.424 18.424 0 0 0 8.064-10.157 36.77 36.77 0 0 1-11.657 4.458 18.368 18.368 0 0 0-31.274 16.74A52.105 52.105 0 0 1 6.23 3.348c-4.877 8.385-2.394 19.118 5.67 24.508a18.212 18.212 0 0 1-8.27-2.303v.234a18.362 18.362 0 0 0 14.69 17.995c-2.704.736-5.54.843-8.291.312a18.375 18.375 0 0 0 17.15 12.757A36.846 36.846 0 0 1 4.38 64.688c-1.464.001-2.927-.084-4.38-.255a51.958 51.958 0 0 0 28.134 8.243" fill="#E0E0E0" mask="url(#b)"/></g></svg>