<?xml version="1.0" encoding="UTF-8"?>
<svg width="90px" height="90px" viewBox="0 0 90 90" version="1.1" xmlns="http://www.w3.org/2000/svg" xmlns:xlink="http://www.w3.org/1999/xlink">
    <!-- Generator: Sketch 42 (36781) - http://www.bohemiancoding.com/sketch -->
    <title>@ copy</title>
    <desc>Created with Sketch.</desc>
    <defs></defs>
    <g id="Ranges" stroke="none" stroke-width="1" fill="none" fill-rule="evenodd">
        <g id="iPhone-SE-Copy-14" transform="translate(-51.000000, -318.000000)" fill="#E0E0E0">
            <path d="M120.187146,340.260488 L116.614367,369.847214 C116.463137,370.936762 116.359169,371.979331 116.302457,372.974953 C116.245746,373.970575 116.217391,374.900434 116.217391,375.764559 C116.217391,378.582356 117.389402,379.991234 119.733459,379.991234 C123.022701,379.991234 126.009438,377.680674 128.693762,373.059487 C131.340278,368.51344 132.663516,363.328771 132.663516,357.505322 C132.663516,348.262947 129.412131,340.692578 122.909263,334.793989 C116.444202,328.820258 108.183415,325.833438 98.1266541,325.833438 C87.6162045,325.833438 78.7694121,329.402594 71.5860113,336.541014 C64.440418,343.641864 60.8676749,352.43326 60.8676749,362.915466 C60.8676749,368.701344 62.1531062,374.374424 64.7240076,379.934878 C67.3327163,385.157196 70.981073,389.458969 75.6691871,392.840326 C81.945211,397.348802 89.8090265,399.603006 99.2608696,399.603006 C108.107795,399.603006 117.370462,397.367587 127.049149,392.896681 L127.899811,392.445836 L130.848771,400.561052 L130.168242,400.899186 C120.300518,405.633086 110.017067,408 99.3175803,408 C87.4838728,408 77.5784898,405.16346 69.6011342,399.490294 C63.7409915,395.357525 59.1663681,390.07893 55.8771267,383.654352 C52.6256926,376.891638 51,370.016315 51,363.028178 C51,350.291733 55.5179132,339.603049 64.5538752,330.961803 C73.5898372,322.320558 84.7428448,318 98.0132325,318 C110.225014,318 120.451755,321.719437 128.693762,329.158422 C136.897962,336.522266 141,345.745718 141,356.829054 C141,365.395159 138.769398,372.740107 134.308129,378.86412 C129.809051,385.063275 124.535002,388.162805 118.485822,388.162805 C113.646479,388.162805 110.357287,385.889816 108.618147,381.34377 C103.967841,386.077669 98.7883083,388.444584 93.0793951,388.444584 C86.8411786,388.444584 81.6427429,386.209164 77.4839319,381.738259 C73.4007357,377.304925 71.3591682,371.650629 71.3591682,364.775204 C71.3591682,357.373789 73.64648,351.287438 78.221172,346.515967 C82.7958641,341.631785 88.5424985,339.189731 95.4612476,339.189731 C101.812886,339.189731 106.935708,341.631785 110.829868,346.515967 L111.623819,340.260488 L120.187146,340.260488 Z M108.618147,362.013776 C108.618147,358.519707 107.427233,355.608027 105.045369,353.278647 C102.587889,350.949268 99.6011518,349.784596 96.0850662,349.784596 C92.2665216,349.784596 89.1474601,351.249829 86.7277883,354.180338 C84.2703091,357.073277 83.0415879,360.773929 83.0415879,365.282405 C83.0415879,369.18975 84.0245648,372.401991 85.9905482,374.919224 C87.9565316,377.436456 90.4895875,378.695053 93.5897921,378.695053 C97.5595662,378.695053 101.056696,377.023185 104.081285,373.679399 C107.105875,370.335613 108.618147,366.44711 108.618147,362.013776 Z"></path>
        </g>
    </g>
</svg>
