<?xml version="1.0" encoding="UTF-8"?>
<svg width="111px" height="90px" viewBox="0 0 111 90" version="1.1" xmlns="http://www.w3.org/2000/svg" xmlns:xlink="http://www.w3.org/1999/xlink">
    <!-- Generator: Sketch 42 (36781) - http://www.bohemiancoding.com/sketch -->
    <title>Page 1</title>
    <desc>Created with Sketch.</desc>
    <defs>
        <polygon id="path-1" points="0 44.8133592 0 -1.24159123e-14 110.294898 -1.24159123e-14 110.294898 44.8133592 110.294898 89.6267184 0 89.6267184"></polygon>
    </defs>
    <g stroke="none" stroke-width="1" fill="none" fill-rule="evenodd">
        <g>
            <mask id="mask-2" fill="white">
                <use xlink:href="#path-1"></use>
            </mask>
            <g></g>
            <path d="M34.6855787,89.6267184 C76.3082731,89.6267184 99.0679538,55.1383689 99.0679538,25.2373981 C99.0679538,24.2587573 99.0679538,23.2801165 99.0067954,22.3102136 C103.434667,19.105165 107.25707,15.137301 110.294898,10.5927379 C106.166703,12.4241942 101.787758,13.6256505 97.3030957,14.1577864 C102.025402,11.3267184 105.558613,6.87739806 107.245712,1.63642718 C102.802988,4.27438835 97.9417646,6.13293204 92.8734764,7.13254369 C85.8603495,-0.325223301 74.7155323,-2.15056311 65.6902923,2.68060194 C56.6641786,7.51176699 52.0021573,17.7979806 54.3174415,27.7713786 C36.1228023,26.8600194 19.1705533,18.2654563 7.67975407,4.12671845 C1.66700464,14.4644854 4.72842196,27.696233 14.6692913,34.3422524 C11.0932693,34.2216699 7.59762701,33.2482718 4.47330385,31.5024466 L4.47330385,31.7907961 C4.47155647,42.5506019 12.0429727,51.8249709 22.5849423,53.976233 C19.2518067,54.8840971 15.7552907,55.0160388 12.362744,54.360699 C15.3236868,63.5852621 23.820343,69.906233 33.5060943,70.0888544 C25.4856003,76.3705049 15.5866681,79.7747767 5.39941754,79.752932 C3.59524323,79.7538058 1.79194262,79.6489515 0,79.4383689 C10.3471362,86.0852621 22.3883616,89.6127379 34.6855787,89.6005049" fill="#E0E0E0" mask="url(#mask-2)"></path>
        </g>
    </g>
</svg>
